<svg xmlns="http://www.w3.org/2000/svg" viewBox="0 0 43802 400" width="43802" height="400"><path d="M208.715 385.611C-12.196 269.475-47.302-115.556 193.127 120.22c150.253-245.601 256.63 50.615 15.588 265.391z" fill="none" stroke="#bc1b8b" stroke-width="10" stroke-dasharray="0,1150.8699139842738" stroke-dashoffset="1150.869914"/><path d="M570.715 385.611C349.804 269.475 314.698-115.556 555.127 120.22c150.253-245.601 256.63 50.615 15.588 265.391z" fill="none" stroke="#bc1b8b" stroke-width="10" stroke-dasharray="0.6883364492966314,1150.1815775349771" stroke-dashoffset="1150.869914"/><path d="M932.715 385.611C711.804 269.475 676.698-115.556 917.127 120.22c150.253-245.601 256.63 50.615 15.588 265.391z" fill="none" stroke="#bc1b8b" stroke-width="10" stroke-dasharray="2.848942074919811,1148.020971909354" stroke-dashoffset="1150.869914"/><path d="M1294.715 385.611c-220.911-116.136-256.017-501.167-15.588-265.391 150.253-245.601 256.63 50.615 15.588 265.391z" fill="none" stroke="#bc1b8b" stroke-width="10" stroke-dasharray="6.640763658709053,1144.229150325565" stroke-dashoffset="1150.869914"/><path d="M1656.715 385.611c-220.911-116.136-256.017-501.167-15.588-265.391 150.253-245.601 256.63 50.615 15.588 265.391z" fill="none" stroke="#bc1b8b" stroke-width="10" stroke-dasharray="12.246124627116503,1138.6237893571572" stroke-dashoffset="1150.869914"/><path d="M2018.715 385.611c-220.911-116.136-256.017-501.167-15.588-265.391 150.253-245.601 256.63 50.615 15.588 265.391z" fill="none" stroke="#bc1b8b" stroke-width="10" stroke-dasharray="19.87426520225658,1130.9956487820173" stroke-dashoffset="1150.869914"/><path d="M2380.715 385.611c-220.911-116.136-256.017-501.167-15.588-265.391 150.253-245.601 256.63 50.615 15.588 265.391z" fill="none" stroke="#bc1b8b" stroke-width="10" stroke-dasharray="29.764965723454463,1121.1049482608194" stroke-dashoffset="1150.869914"/><path d="M2742.715 385.611c-220.911-116.136-256.017-501.167-15.588-265.391 150.253-245.601 256.63 50.615 15.588 265.391z" fill="none" stroke="#bc1b8b" stroke-width="10" stroke-dasharray="42.19177095646814,1108.6781430278056" stroke-dashoffset="1150.869914"/><path d="M3104.715 385.611c-220.911-116.136-256.017-501.167-15.588-265.391 150.253-245.601 256.63 50.615 15.588 265.391z" fill="none" stroke="#bc1b8b" stroke-width="10" stroke-dasharray="57.46386350815803,1093.4060504761158" stroke-dashoffset="1150.869914"/><path d="M3466.715 385.611c-220.911-116.136-256.017-501.167-15.588-265.391 150.253-245.601 256.63 50.615 15.588 265.391z" fill="none" stroke="#bc1b8b" stroke-width="10" stroke-dasharray="75.92483557723651,1074.9450784070373" stroke-dashoffset="1150.869914"/><path d="M3828.715 385.611c-220.911-116.136-256.017-501.167-15.588-265.391 150.253-245.601 256.63 50.615 15.588 265.391z" fill="none" stroke="#bc1b8b" stroke-width="10" stroke-dasharray="97.94533829497126,1052.9245756893024" stroke-dashoffset="1150.869914"/><path d="M4190.715 385.611c-220.911-116.136-256.017-501.167-15.588-265.391 150.253-245.601 256.63 50.615 15.588 265.391z" fill="none" stroke="#bc1b8b" stroke-width="10" stroke-dasharray="123.90478807351803,1026.9651259107557" stroke-dashoffset="1150.869914"/><path d="M4552.715 385.611c-220.911-116.136-256.017-501.167-15.588-265.391 150.253-245.601 256.63 50.615 15.588 265.391z" fill="none" stroke="#bc1b8b" stroke-width="10" stroke-dasharray="154.15531351031336,996.7146004739603" stroke-dashoffset="1150.869914"/><path d="M4914.715 385.611c-220.911-116.136-256.017-501.167-15.588-265.391 150.253-245.601 256.63 50.615 15.588 265.391z" fill="none" stroke="#bc1b8b" stroke-width="10" stroke-dasharray="188.960338430766,961.9095755535078" stroke-dashoffset="1150.869914"/><path d="M5276.715 385.611c-220.911-116.136-256.017-501.167-15.588-265.391 150.253-245.601 256.63 50.615 15.588 265.391z" fill="none" stroke="#bc1b8b" stroke-width="10" stroke-dasharray="228.4040133327375,922.4659006515362" stroke-dashoffset="1150.869914"/><path d="M5638.715 385.611c-220.911-116.136-256.017-501.167-15.588-265.391 150.253-245.601 256.63 50.615 15.588 265.391z" fill="none" stroke="#bc1b8b" stroke-width="10" stroke-dasharray="272.281275191322,878.5886387929519" stroke-dashoffset="1150.869914"/><path d="M6000.715 385.611c-220.911-116.136-256.017-501.167-15.588-265.391 150.253-245.601 256.63 50.615 15.588 265.391z" fill="none" stroke="#bc1b8b" stroke-width="10" stroke-dasharray="320.00345049652196,830.8664634877518" stroke-dashoffset="1150.869914"/><path d="M6362.715 385.611c-220.911-116.136-256.017-501.167-15.588-265.391 150.253-245.601 256.63 50.615 15.588 265.391z" fill="none" stroke="#bc1b8b" stroke-width="10" stroke-dasharray="370.5778376803433,780.2920763039306" stroke-dashoffset="1150.869914"/><path d="M6724.715 385.611c-220.911-116.136-256.017-501.167-15.588-265.391 150.253-245.601 256.63 50.615 15.588 265.391z" fill="none" stroke="#bc1b8b" stroke-width="10" stroke-dasharray="422.7095802018914,728.1603337823824" stroke-dashoffset="1150.869914"/><path d="M7086.715 385.611c-220.911-116.136-256.017-501.167-15.588-265.391 150.253-245.601 256.63 50.615 15.588 265.391z" fill="none" stroke="#bc1b8b" stroke-width="10" stroke-dasharray="475.01179065180213,675.8581233324717" stroke-dashoffset="1150.869914"/><path d="M7448.715 385.611c-220.911-116.136-256.017-501.167-15.588-265.391 150.253-245.601 256.63 50.615 15.588 265.391z" fill="none" stroke="#bc1b8b" stroke-width="10" stroke-dasharray="526.2372704722025,624.6326435120714" stroke-dashoffset="1150.869914"/><path d="M7810.715 385.611c-220.911-116.136-256.017-501.167-15.588-265.391 150.253-245.601 256.63 50.615 15.588 265.391z" fill="none" stroke="#bc1b8b" stroke-width="10" stroke-dasharray="575.4349569921368,575.434956992137" stroke-dashoffset="1150.869914"/><path d="M8172.715 385.611c-220.911-116.136-256.017-501.167-15.588-265.391 150.253-245.601 256.63 50.615 15.588 265.391z" fill="none" stroke="#bc1b8b" stroke-width="10" stroke-dasharray="621.9938575727169,528.8760564115569" stroke-dashoffset="1150.869914"/><path d="M8534.715 385.611c-220.911-116.136-256.017-501.167-15.588-265.391 150.253-245.601 256.63 50.615 15.588 265.391z" fill="none" stroke="#bc1b8b" stroke-width="10" stroke-dasharray="665.6017422409128,485.268171743361" stroke-dashoffset="1150.869914"/><path d="M8896.715 385.611c-220.911-116.136-256.017-501.167-15.588-265.391 150.253-245.601 256.63 50.615 15.588 265.391z" fill="none" stroke="#bc1b8b" stroke-width="10" stroke-dasharray="706.1677331363377,444.7021808479362" stroke-dashoffset="1150.869914"/><path d="M9258.715 385.611c-220.911-116.136-256.017-501.167-15.588-265.391 150.253-245.601 256.63 50.615 15.588 265.391z" fill="none" stroke="#bc1b8b" stroke-width="10" stroke-dasharray="743.7452152410781,407.1246987431958" stroke-dashoffset="1150.869914"/><path d="M9620.715 385.611c-220.911-116.136-256.017-501.167-15.588-265.391 150.253-245.601 256.63 50.615 15.588 265.391z" fill="none" stroke="#bc1b8b" stroke-width="10" stroke-dasharray="778.4711218269501,372.3987921573237" stroke-dashoffset="1150.869914"/><path d="M9982.715 385.611c-220.911-116.136-256.017-501.167-15.588-265.391 150.253-245.601 256.63 50.615 15.588 265.391z" fill="none" stroke="#bc1b8b" stroke-width="10" stroke-dasharray="810.5240018020647,340.3459121822091" stroke-dashoffset="1150.869914"/><path d="M10344.715 385.611c-220.911-116.136-256.017-501.167-15.588-265.391 150.253-245.601 256.63 50.615 15.588 265.391z" fill="none" stroke="#bc1b8b" stroke-width="10" stroke-dasharray="840.0975107097335,310.7724032745404" stroke-dashoffset="1150.869914"/><path d="M10706.715 385.611c-220.911-116.136-256.017-501.167-15.588-265.391 150.253-245.601 256.63 50.615 15.588 265.391z" fill="none" stroke="#bc1b8b" stroke-width="10" stroke-dasharray="867.384826400982,283.48508758329183" stroke-dashoffset="1150.869914"/><path d="M11068.715 385.611c-220.911-116.136-256.017-501.167-15.588-265.391 150.253-245.601 256.63 50.615 15.588 265.391z" fill="none" stroke="#bc1b8b" stroke-width="10" stroke-dasharray="892.5701794138291,258.2997345704447" stroke-dashoffset="1150.869914"/><path d="M11430.715 385.611c-220.911-116.136-256.017-501.167-15.588-265.391 150.253-245.601 256.63 50.615 15.588 265.391z" fill="none" stroke="#bc1b8b" stroke-width="10" stroke-dasharray="915.8247650134766,235.04514897079713" stroke-dashoffset="1150.869914"/><path d="M11792.715 385.611c-220.911-116.136-256.017-501.167-15.588-265.391 150.253-245.601 256.63 50.615 15.588 265.391z" fill="none" stroke="#bc1b8b" stroke-width="10" stroke-dasharray="937.3052351617869,213.564678822487" stroke-dashoffset="1150.869914"/><path d="M12154.715 385.611c-220.911-116.136-256.017-501.167-15.588-265.391 150.253-245.601 256.63 50.615 15.588 265.391z" fill="none" stroke="#bc1b8b" stroke-width="10" stroke-dasharray="957.1536406065969,193.71627337767683" stroke-dashoffset="1150.869914"/><path d="M12516.715 385.611c-220.911-116.136-256.017-501.167-15.588-265.391 150.253-245.601 256.63 50.615 15.588 265.391z" fill="none" stroke="#bc1b8b" stroke-width="10" stroke-dasharray="975.4981382681589,175.37177571611497" stroke-dashoffset="1150.869914"/><path d="M12878.715 385.611c-220.911-116.136-256.017-501.167-15.588-265.391 150.253-245.601 256.63 50.615 15.588 265.391z" fill="none" stroke="#bc1b8b" stroke-width="10" stroke-dasharray="992.4540601688107,158.41585381546312" stroke-dashoffset="1150.869914"/><path d="M13240.715 385.611c-220.911-116.136-256.017-501.167-15.588-265.391 150.253-245.601 256.63 50.615 15.588 265.391z" fill="none" stroke="#bc1b8b" stroke-width="10" stroke-dasharray="1008.1251126049399,142.74480137933395" stroke-dashoffset="1150.869914"/><path d="M13602.715 385.611c-220.911-116.136-256.017-501.167-15.588-265.391 150.253-245.601 256.63 50.615 15.588 265.391z" fill="none" stroke="#bc1b8b" stroke-width="10" stroke-dasharray="1022.60457795746,128.26533602681377" stroke-dashoffset="1150.869914"/><path d="M13964.715 385.611c-220.911-116.136-256.017-501.167-15.588-265.391 150.253-245.601 256.63 50.615 15.588 265.391z" fill="none" stroke="#bc1b8b" stroke-width="10" stroke-dasharray="1035.976452842298,114.89346114197583" stroke-dashoffset="1150.869914"/><path d="M14326.715 385.611c-220.911-116.136-256.017-501.167-15.588-265.391 150.253-245.601 256.63 50.615 15.588 265.391z" fill="none" stroke="#bc1b8b" stroke-width="10" stroke-dasharray="1048.3164918963737,102.55342208790019" stroke-dashoffset="1150.869914"/><path d="M14688.715 385.611c-220.911-116.136-256.017-501.167-15.588-265.391 150.253-245.601 256.63 50.615 15.588 265.391z" fill="none" stroke="#bc1b8b" stroke-width="10" stroke-dasharray="1059.69314667414,91.1767673101337" stroke-dashoffset="1150.869914"/><path d="M15050.715 385.611c-220.911-116.136-256.017-501.167-15.588-265.391 150.253-245.601 256.63 50.615 15.588 265.391z" fill="none" stroke="#bc1b8b" stroke-width="10" stroke-dasharray="1070.168400161345,80.70151382292865" stroke-dashoffset="1150.869914"/><path d="M15412.715 385.611c-220.911-116.136-256.017-501.167-15.588-265.391 150.253-245.601 256.63 50.615 15.588 265.391z" fill="none" stroke="#bc1b8b" stroke-width="10" stroke-dasharray="1079.7985030763587,71.07141090791505" stroke-dashoffset="1150.869914"/><path d="M15774.715 385.611c-220.911-116.136-256.017-501.167-15.588-265.391 150.253-245.601 256.63 50.615 15.588 265.391z" fill="none" stroke="#bc1b8b" stroke-width="10" stroke-dasharray="1088.6346206915102,62.23529329276351" stroke-dashoffset="1150.869914"/><path d="M16136.715 385.611c-220.911-116.136-256.017-501.167-15.588-265.391 150.253-245.601 256.63 50.615 15.588 265.391z" fill="none" stroke="#bc1b8b" stroke-width="10" stroke-dasharray="1096.7233997182589,54.146514266014925" stroke-dashoffset="1150.869914"/><path d="M16498.715 385.611c-220.911-116.136-256.017-501.167-15.588-265.391 150.253-245.601 256.63 50.615 15.588 265.391z" fill="none" stroke="#bc1b8b" stroke-width="10" stroke-dasharray="1104.1074646605332,46.762449323740675" stroke-dashoffset="1150.869914"/><path d="M16860.715 385.611c-220.911-116.136-256.017-501.167-15.588-265.391 150.253-245.601 256.63 50.615 15.588 265.391z" fill="none" stroke="#bc1b8b" stroke-width="10" stroke-dasharray="1110.8258524188986,40.04406156537507" stroke-dashoffset="1150.869914"/><path d="M17222.715 385.611c-220.911-116.136-256.017-501.167-15.588-265.391 150.253-245.601 256.63 50.615 15.588 265.391z" fill="none" stroke="#bc1b8b" stroke-width="10" stroke-dasharray="1116.9143930949444,33.955520889329314" stroke-dashoffset="1150.869914"/><path d="M17584.715 385.611c-220.911-116.136-256.017-501.167-15.588-265.391 150.253-245.601 256.63 50.615 15.588 265.391z" fill="none" stroke="#bc1b8b" stroke-width="10" stroke-dasharray="1122.4060440526189,28.46386993165498" stroke-dashoffset="1150.869914"/><path d="M17946.715 385.611c-220.911-116.136-256.017-501.167-15.588-265.391 150.253-245.601 256.63 50.615 15.588 265.391z" fill="none" stroke="#bc1b8b" stroke-width="10" stroke-dasharray="1127.3311834234353,23.5387305608385" stroke-dashoffset="1150.869914"/><path d="M18308.715 385.611c-220.911-116.136-256.017-501.167-15.588-265.391 150.253-245.601 256.63 50.615 15.588 265.391z" fill="none" stroke="#bc1b8b" stroke-width="10" stroke-dasharray="1131.7178684364762,19.152045547797645" stroke-dashoffset="1150.869914"/><path d="M18670.715 385.611c-220.911-116.136-256.017-501.167-15.588-265.391 150.253-245.601 256.63 50.615 15.588 265.391z" fill="none" stroke="#bc1b8b" stroke-width="10" stroke-dasharray="1135.5920632293164,15.277850754957404" stroke-dashoffset="1150.869914"/><path d="M19032.715 385.611c-220.911-116.136-256.017-501.167-15.588-265.391 150.253-245.601 256.63 50.615 15.588 265.391z" fill="none" stroke="#bc1b8b" stroke-width="10" stroke-dasharray="1138.9778401563499,11.892073827923854" stroke-dashoffset="1150.869914"/><path d="M19394.715 385.611c-220.911-116.136-256.017-501.167-15.588-265.391 150.253-245.601 256.63 50.615 15.588 265.391z" fill="none" stroke="#bc1b8b" stroke-width="10" stroke-dasharray="1141.897558053402,8.972355930871773" stroke-dashoffset="1150.869914"/><path d="M19756.715 385.611c-220.911-116.136-256.017-501.167-15.588-265.391 150.253-245.601 256.63 50.615 15.588 265.391z" fill="none" stroke="#bc1b8b" stroke-width="10" stroke-dasharray="1144.3720204353335,6.49789354894034" stroke-dashoffset="1150.869914"/><path d="M20118.715 385.611c-220.911-116.136-256.017-501.167-15.588-265.391 150.253-245.601 256.63 50.615 15.588 265.391z" fill="none" stroke="#bc1b8b" stroke-width="10" stroke-dasharray="1146.4206161885736,4.449297795700275" stroke-dashoffset="1150.869914"/><path d="M20480.715 385.611c-220.911-116.136-256.017-501.167-15.588-265.391 150.253-245.601 256.63 50.615 15.588 265.391z" fill="none" stroke="#bc1b8b" stroke-width="10" stroke-dasharray="1148.0614449648997,2.8084690193741033" stroke-dashoffset="1150.869914"/><path d="M20842.715 385.611c-220.911-116.136-256.017-501.167-15.588-265.391 150.253-245.601 256.63 50.615 15.588 265.391z" fill="none" stroke="#bc1b8b" stroke-width="10" stroke-dasharray="1149.3114291784664,1.5584848058073575" stroke-dashoffset="1150.869914"/><path d="M21204.715 385.611c-220.911-116.136-256.017-501.167-15.588-265.391 150.253-245.601 256.63 50.615 15.588 265.391z" fill="none" stroke="#bc1b8b" stroke-width="10" stroke-dasharray="1150.1864142479005,0.6834997363731957" stroke-dashoffset="1150.869914"/><path d="M21566.715 385.611c-220.911-116.136-256.017-501.167-15.588-265.391 150.253-245.601 256.63 50.615 15.588 265.391z" fill="none" stroke="#bc1b8b" stroke-width="10" stroke-dasharray="1150.7012585028617,0.1686554814119876" stroke-dashoffset="1150.869914"/><path d="M21928.715 385.611c-220.911-116.136-256.017-501.167-15.588-265.391 150.253-245.601 256.63 50.615 15.588 265.391z" fill="none" stroke="#bc1b8b" stroke-width="10"/><path d="M22290.715 385.611c-220.911-116.136-256.017-501.167-15.588-265.391 150.253-245.601 256.63 50.615 15.588 265.391z" fill="none" stroke="#bc1b8b" stroke-width="10" stroke-dasharray="1150.1815775349771,0.6883364492966313" stroke-dashoffset="1150.181578"/><path d="M22652.715 385.611c-220.911-116.136-256.017-501.167-15.588-265.391 150.253-245.601 256.63 50.615 15.588 265.391z" fill="none" stroke="#bc1b8b" stroke-width="10" stroke-dasharray="1148.020971909354,2.8489420749198033" stroke-dashoffset="1148.020972"/><path d="M23014.715 385.611c-220.911-116.136-256.017-501.167-15.588-265.391 150.253-245.601 256.63 50.615 15.588 265.391z" fill="none" stroke="#bc1b8b" stroke-width="10" stroke-dasharray="1144.229150325565,6.640763658709025" stroke-dashoffset="1144.22915"/><path d="M23376.715 385.611c-220.911-116.136-256.017-501.167-15.588-265.391 150.253-245.601 256.63 50.615 15.588 265.391z" fill="none" stroke="#bc1b8b" stroke-width="10" stroke-dasharray="1138.6237893571572,12.246124627116542" stroke-dashoffset="1138.623789"/><path d="M23738.715 385.611c-220.911-116.136-256.017-501.167-15.588-265.391 150.253-245.601 256.63 50.615 15.588 265.391z" fill="none" stroke="#bc1b8b" stroke-width="10" stroke-dasharray="1130.9956487820173,19.8742652022565" stroke-dashoffset="1130.995649"/><path d="M24100.715 385.611c-220.911-116.136-256.017-501.167-15.588-265.391 150.253-245.601 256.63 50.615 15.588 265.391z" fill="none" stroke="#bc1b8b" stroke-width="10" stroke-dasharray="1121.1049482608194,29.764965723454427" stroke-dashoffset="1121.104948"/><path d="M24462.715 385.611c-220.911-116.136-256.017-501.167-15.588-265.391 150.253-245.601 256.63 50.615 15.588 265.391z" fill="none" stroke="#bc1b8b" stroke-width="10" stroke-dasharray="1108.6781430278056,42.191770956468176" stroke-dashoffset="1108.678143"/><path d="M24824.715 385.611c-220.911-116.136-256.017-501.167-15.588-265.391 150.253-245.601 256.63 50.615 15.588 265.391z" fill="none" stroke="#bc1b8b" stroke-width="10" stroke-dasharray="1093.4060504761158,57.463863508157964" stroke-dashoffset="1093.40605"/><path d="M25186.715 385.611c-220.911-116.136-256.017-501.167-15.588-265.391 150.253-245.601 256.63 50.615 15.588 265.391z" fill="none" stroke="#bc1b8b" stroke-width="10" stroke-dasharray="1074.9450784070373,75.92483557723648" stroke-dashoffset="1074.945078"/><path d="M25548.715 385.611c-220.911-116.136-256.017-501.167-15.588-265.391 150.253-245.601 256.63 50.615 15.588 265.391z" fill="none" stroke="#bc1b8b" stroke-width="10" stroke-dasharray="1052.9245756893024,97.94533829497142" stroke-dashoffset="1052.924576"/><path d="M25910.715 385.611c-220.911-116.136-256.017-501.167-15.588-265.391 150.253-245.601 256.63 50.615 15.588 265.391z" fill="none" stroke="#bc1b8b" stroke-width="10" stroke-dasharray="1026.965125910756,123.90478807351792" stroke-dashoffset="1026.965126"/><path d="M26272.715 385.611c-220.911-116.136-256.017-501.167-15.588-265.391 150.253-245.601 256.63 50.615 15.588 265.391z" fill="none" stroke="#bc1b8b" stroke-width="10" stroke-dasharray="996.7146004739603,154.15531351031342" stroke-dashoffset="996.7146"/><path d="M26634.715 385.611c-220.911-116.136-256.017-501.167-15.588-265.391 150.253-245.601 256.63 50.615 15.588 265.391z" fill="none" stroke="#bc1b8b" stroke-width="10" stroke-dasharray="961.9095755535081,188.96033843076566" stroke-dashoffset="961.909576"/><path d="M26996.715 385.611c-220.911-116.136-256.017-501.167-15.588-265.391 150.253-245.601 256.63 50.615 15.588 265.391z" fill="none" stroke="#bc1b8b" stroke-width="10" stroke-dasharray="922.465900651536,228.4040133327378" stroke-dashoffset="922.465901"/><path d="M27358.715 385.611c-220.911-116.136-256.017-501.167-15.588-265.391 150.253-245.601 256.63 50.615 15.588 265.391z" fill="none" stroke="#bc1b8b" stroke-width="10" stroke-dasharray="878.5886387929519,272.281275191322" stroke-dashoffset="878.588639"/><path d="M27720.715 385.611c-220.911-116.136-256.017-501.167-15.588-265.391 150.253-245.601 256.63 50.615 15.588 265.391z" fill="none" stroke="#bc1b8b" stroke-width="10" stroke-dasharray="830.8664634877524,320.0034504965214" stroke-dashoffset="830.866463"/><path d="M28082.715 385.611c-220.911-116.136-256.017-501.167-15.588-265.391 150.253-245.601 256.63 50.615 15.588 265.391z" fill="none" stroke="#bc1b8b" stroke-width="10" stroke-dasharray="780.29207630393,370.5778376803438" stroke-dashoffset="780.292076"/><path d="M28444.715 385.611c-220.911-116.136-256.017-501.167-15.588-265.391 150.253-245.601 256.63 50.615 15.588 265.391z" fill="none" stroke="#bc1b8b" stroke-width="10" stroke-dasharray="728.1603337823824,422.7095802018914" stroke-dashoffset="728.160334"/><path d="M28806.715 385.611c-220.911-116.136-256.017-501.167-15.588-265.391 150.253-245.601 256.63 50.615 15.588 265.391z" fill="none" stroke="#bc1b8b" stroke-width="10" stroke-dasharray="675.8581233324715,475.0117906518023" stroke-dashoffset="675.858123"/><path d="M29168.715 385.611c-220.911-116.136-256.017-501.167-15.588-265.391 150.253-245.601 256.63 50.615 15.588 265.391z" fill="none" stroke="#bc1b8b" stroke-width="10" stroke-dasharray="624.6326435120715,526.2372704722023" stroke-dashoffset="624.632644"/><path d="M29530.715 385.611c-220.911-116.136-256.017-501.167-15.588-265.391 150.253-245.601 256.63 50.615 15.588 265.391z" fill="none" stroke="#bc1b8b" stroke-width="10" stroke-dasharray="575.434956992137,575.4349569921368" stroke-dashoffset="575.434957"/><path d="M29892.715 385.611c-220.911-116.136-256.017-501.167-15.588-265.391 150.253-245.601 256.63 50.615 15.588 265.391z" fill="none" stroke="#bc1b8b" stroke-width="10" stroke-dasharray="528.8760564115568,621.993857572717" stroke-dashoffset="528.876056"/><path d="M30254.715 385.611c-220.911-116.136-256.017-501.167-15.588-265.391 150.253-245.601 256.63 50.615 15.588 265.391z" fill="none" stroke="#bc1b8b" stroke-width="10" stroke-dasharray="485.26817174336134,665.6017422409125" stroke-dashoffset="485.268172"/><path d="M30616.715 385.611c-220.911-116.136-256.017-501.167-15.588-265.391 150.253-245.601 256.63 50.615 15.588 265.391z" fill="none" stroke="#bc1b8b" stroke-width="10" stroke-dasharray="444.7021808479362,706.1677331363377" stroke-dashoffset="444.702181"/><path d="M30978.715 385.611c-220.911-116.136-256.017-501.167-15.588-265.391 150.253-245.601 256.63 50.615 15.588 265.391z" fill="none" stroke="#bc1b8b" stroke-width="10" stroke-dasharray="407.1246987431955,743.7452152410783" stroke-dashoffset="407.124699"/><path d="M31340.715 385.611c-220.911-116.136-256.017-501.167-15.588-265.391 150.253-245.601 256.63 50.615 15.588 265.391z" fill="none" stroke="#bc1b8b" stroke-width="10" stroke-dasharray="372.3987921573237,778.4711218269501" stroke-dashoffset="372.398792"/><path d="M31702.715 385.611c-220.911-116.136-256.017-501.167-15.588-265.391 150.253-245.601 256.63 50.615 15.588 265.391z" fill="none" stroke="#bc1b8b" stroke-width="10" stroke-dasharray="340.3459121822091,810.5240018020647" stroke-dashoffset="340.345912"/><path d="M32064.715 385.611c-220.911-116.136-256.017-501.167-15.588-265.391 150.253-245.601 256.63 50.615 15.588 265.391z" fill="none" stroke="#bc1b8b" stroke-width="10" stroke-dasharray="310.77240327454064,840.0975107097331" stroke-dashoffset="310.772403"/><path d="M32426.715 385.611c-220.911-116.136-256.017-501.167-15.588-265.391 150.253-245.601 256.63 50.615 15.588 265.391z" fill="none" stroke="#bc1b8b" stroke-width="10" stroke-dasharray="283.4850875832916,867.3848264009822" stroke-dashoffset="283.485088"/><path d="M32788.715 385.611c-220.911-116.136-256.017-501.167-15.588-265.391 150.253-245.601 256.63 50.615 15.588 265.391z" fill="none" stroke="#bc1b8b" stroke-width="10" stroke-dasharray="258.2997345704447,892.5701794138291" stroke-dashoffset="258.299735"/><path d="M33150.715 385.611c-220.911-116.136-256.017-501.167-15.588-265.391 150.253-245.601 256.63 50.615 15.588 265.391z" fill="none" stroke="#bc1b8b" stroke-width="10" stroke-dasharray="235.04514897079738,915.8247650134764" stroke-dashoffset="235.045149"/><path d="M33512.715 385.611c-220.911-116.136-256.017-501.167-15.588-265.391 150.253-245.601 256.63 50.615 15.588 265.391z" fill="none" stroke="#bc1b8b" stroke-width="10" stroke-dasharray="213.56467882248685,937.305235161787" stroke-dashoffset="213.564679"/><path d="M33874.715 385.611c-220.911-116.136-256.017-501.167-15.588-265.391 150.253-245.601 256.63 50.615 15.588 265.391z" fill="none" stroke="#bc1b8b" stroke-width="10" stroke-dasharray="193.71627337767683,957.1536406065969" stroke-dashoffset="193.716273"/><path d="M34236.715 385.611c-220.911-116.136-256.017-501.167-15.588-265.391 150.253-245.601 256.63 50.615 15.588 265.391z" fill="none" stroke="#bc1b8b" stroke-width="10" stroke-dasharray="175.3717757161147,975.4981382681591" stroke-dashoffset="175.371776"/><path d="M34598.715 385.611c-220.911-116.136-256.017-501.167-15.588-265.391 150.253-245.601 256.63 50.615 15.588 265.391z" fill="none" stroke="#bc1b8b" stroke-width="10" stroke-dasharray="158.41585381546338,992.4540601688104" stroke-dashoffset="158.415854"/><path d="M34960.715 385.611c-220.911-116.136-256.017-501.167-15.588-265.391 150.253-245.601 256.63 50.615 15.588 265.391z" fill="none" stroke="#bc1b8b" stroke-width="10" stroke-dasharray="142.74480137933395,1008.1251126049399" stroke-dashoffset="142.744801"/><path d="M35322.715 385.611c-220.911-116.136-256.017-501.167-15.588-265.391 150.253-245.601 256.63 50.615 15.588 265.391z" fill="none" stroke="#bc1b8b" stroke-width="10" stroke-dasharray="128.26533602681377,1022.60457795746" stroke-dashoffset="128.265336"/><path d="M35684.715 385.611c-220.911-116.136-256.017-501.167-15.588-265.391 150.253-245.601 256.63 50.615 15.588 265.391z" fill="none" stroke="#bc1b8b" stroke-width="10" stroke-dasharray="114.89346114197583,1035.976452842298" stroke-dashoffset="114.893461"/><path d="M36046.715 385.611c-220.911-116.136-256.017-501.167-15.588-265.391 150.253-245.601 256.63 50.615 15.588 265.391z" fill="none" stroke="#bc1b8b" stroke-width="10" stroke-dasharray="102.55342208790019,1048.3164918963737" stroke-dashoffset="102.553422"/><path d="M36408.715 385.611c-220.911-116.136-256.017-501.167-15.588-265.391 150.253-245.601 256.63 50.615 15.588 265.391z" fill="none" stroke="#bc1b8b" stroke-width="10" stroke-dasharray="91.17676731013357,1059.6931466741403" stroke-dashoffset="91.176767"/><path d="M36770.715 385.611c-220.911-116.136-256.017-501.167-15.588-265.391 150.253-245.601 256.63 50.615 15.588 265.391z" fill="none" stroke="#bc1b8b" stroke-width="10" stroke-dasharray="80.70151382292877,1070.168400161345" stroke-dashoffset="80.701514"/><path d="M37132.715 385.611c-220.911-116.136-256.017-501.167-15.588-265.391 150.253-245.601 256.63 50.615 15.588 265.391z" fill="none" stroke="#bc1b8b" stroke-width="10" stroke-dasharray="71.07141090791505,1079.7985030763587" stroke-dashoffset="71.071411"/><path d="M37494.715 385.611c-220.911-116.136-256.017-501.167-15.588-265.391 150.253-245.601 256.63 50.615 15.588 265.391z" fill="none" stroke="#bc1b8b" stroke-width="10" stroke-dasharray="62.235293292763636,1088.6346206915102" stroke-dashoffset="62.235293"/><path d="M37856.715 385.611c-220.911-116.136-256.017-501.167-15.588-265.391 150.253-245.601 256.63 50.615 15.588 265.391z" fill="none" stroke="#bc1b8b" stroke-width="10" stroke-dasharray="54.14651426601467,1096.723399718259" stroke-dashoffset="54.146514"/><path d="M38218.715 385.611c-220.911-116.136-256.017-501.167-15.588-265.391 150.253-245.601 256.63 50.615 15.588 265.391z" fill="none" stroke="#bc1b8b" stroke-width="10" stroke-dasharray="46.762449323740675,1104.1074646605332" stroke-dashoffset="46.762449"/><path d="M38580.715 385.611c-220.911-116.136-256.017-501.167-15.588-265.391 150.253-245.601 256.63 50.615 15.588 265.391z" fill="none" stroke="#bc1b8b" stroke-width="10" stroke-dasharray="40.04406156537494,1110.8258524188989" stroke-dashoffset="40.044062"/><path d="M38942.715 385.611c-220.911-116.136-256.017-501.167-15.588-265.391 150.253-245.601 256.63 50.615 15.588 265.391z" fill="none" stroke="#bc1b8b" stroke-width="10" stroke-dasharray="33.955520889329186,1116.9143930949447" stroke-dashoffset="33.955521"/><path d="M39304.715 385.611c-220.911-116.136-256.017-501.167-15.588-265.391 150.253-245.601 256.63 50.615 15.588 265.391z" fill="none" stroke="#bc1b8b" stroke-width="10" stroke-dasharray="28.46386993165498,1122.4060440526189" stroke-dashoffset="28.46387"/><path d="M39666.715 385.611c-220.911-116.136-256.017-501.167-15.588-265.391 150.253-245.601 256.63 50.615 15.588 265.391z" fill="none" stroke="#bc1b8b" stroke-width="10" stroke-dasharray="23.5387305608385,1127.3311834234353" stroke-dashoffset="23.538731"/><path d="M40028.715 385.611c-220.911-116.136-256.017-501.167-15.588-265.391 150.253-245.601 256.63 50.615 15.588 265.391z" fill="none" stroke="#bc1b8b" stroke-width="10" stroke-dasharray="19.152045547797645,1131.7178684364762" stroke-dashoffset="19.152046"/><path d="M40390.715 385.611c-220.911-116.136-256.017-501.167-15.588-265.391 150.253-245.601 256.63 50.615 15.588 265.391z" fill="none" stroke="#bc1b8b" stroke-width="10" stroke-dasharray="15.277850754957404,1135.5920632293164" stroke-dashoffset="15.277851"/><path d="M40752.715 385.611c-220.911-116.136-256.017-501.167-15.588-265.391 150.253-245.601 256.63 50.615 15.588 265.391z" fill="none" stroke="#bc1b8b" stroke-width="10" stroke-dasharray="11.892073827923854,1138.9778401563499" stroke-dashoffset="11.892074"/><path d="M41114.715 385.611c-220.911-116.136-256.017-501.167-15.588-265.391 150.253-245.601 256.63 50.615 15.588 265.391z" fill="none" stroke="#bc1b8b" stroke-width="10" stroke-dasharray="8.972355930871773,1141.897558053402" stroke-dashoffset="8.972356"/><path d="M41476.715 385.611c-220.911-116.136-256.017-501.167-15.588-265.391 150.253-245.601 256.63 50.615 15.588 265.391z" fill="none" stroke="#bc1b8b" stroke-width="10" stroke-dasharray="6.49789354894034,1144.3720204353335" stroke-dashoffset="6.497894"/><path d="M41838.715 385.611c-220.911-116.136-256.017-501.167-15.588-265.391 150.253-245.601 256.63 50.615 15.588 265.391z" fill="none" stroke="#bc1b8b" stroke-width="10" stroke-dasharray="4.449297795700275,1146.4206161885736" stroke-dashoffset="4.449298"/><path d="M42200.715 385.611c-220.911-116.136-256.017-501.167-15.588-265.391 150.253-245.601 256.63 50.615 15.588 265.391z" fill="none" stroke="#bc1b8b" stroke-width="10" stroke-dasharray="2.8084690193741033,1148.0614449648997" stroke-dashoffset="2.808469"/><path d="M42562.715 385.611c-220.911-116.136-256.017-501.167-15.588-265.391 150.253-245.601 256.63 50.615 15.588 265.391z" fill="none" stroke="#bc1b8b" stroke-width="10" stroke-dasharray="1.5584848058073575,1149.3114291784664" stroke-dashoffset="1.558485"/><path d="M42924.715 385.611c-220.911-116.136-256.017-501.167-15.588-265.391 150.253-245.601 256.63 50.615 15.588 265.391z" fill="none" stroke="#bc1b8b" stroke-width="10" stroke-dasharray="0.6834997363731957,1150.1864142479005" stroke-dashoffset=".6835"/><path d="M43286.715 385.611c-220.911-116.136-256.017-501.167-15.588-265.391 150.253-245.601 256.63 50.615 15.588 265.391z" fill="none" stroke="#bc1b8b" stroke-width="10" stroke-dasharray="0.16865548141185982,1150.701258502862" stroke-dashoffset=".168655"/><path d="M43648.715 385.611c-220.911-116.136-256.017-501.167-15.588-265.391 150.253-245.601 256.63 50.615 15.588 265.391z" fill="none" stroke="#bc1b8b" stroke-width="10" stroke-dasharray="0,1150.8699139842738" stroke-dashoffset="1150.869914"/></svg>